<?xml version="1.0" encoding="UTF-8" standalone="no"?>
<!-- Created with Inkscape (http://www.inkscape.org/) -->

<svg
   width="64"
   height="64"
   viewBox="0 0 16.933333 16.933333"
   version="1.1"
   id="svg1"
   xml:space="preserve"
   inkscape:version="1.3 (0e150ed6c4, 2023-07-21)"
   sodipodi:docname="icon.svg"
   xmlns:inkscape="http://www.inkscape.org/namespaces/inkscape"
   xmlns:sodipodi="http://sodipodi.sourceforge.net/DTD/sodipodi-0.dtd"
   xmlns:xlink="http://www.w3.org/1999/xlink"
   xmlns="http://www.w3.org/2000/svg"
   xmlns:svg="http://www.w3.org/2000/svg"><sodipodi:namedview
     id="namedview1"
     pagecolor="#ffffff"
     bordercolor="#000000"
     borderopacity="0.25"
     inkscape:showpageshadow="2"
     inkscape:pageopacity="0.0"
     inkscape:pagecheckerboard="0"
     inkscape:deskcolor="#d1d1d1"
     inkscape:document-units="mm"
     inkscape:zoom="8"
     inkscape:cx="29.9375"
     inkscape:cy="-1.5625"
     inkscape:window-width="2560"
     inkscape:window-height="1423"
     inkscape:window-x="1920"
     inkscape:window-y="0"
     inkscape:window-maximized="1"
     inkscape:current-layer="layer1"
     showguides="false" /><defs
     id="defs1"><linearGradient
       id="linearGradient19"
       inkscape:collect="always"><stop
         style="stop-color:#9d9d9d;stop-opacity:1;"
         offset="0"
         id="stop19" /><stop
         style="stop-color:#c5c5c5;stop-opacity:1;"
         offset="1"
         id="stop20" /></linearGradient><inkscape:path-effect
       effect="mirror_symmetry"
       start_point="8.4666667,0"
       end_point="8.4666667,16.933333"
       center_point="8.4666667,8.4666667"
       id="path-effect8"
       is_visible="true"
       lpeversion="1.2"
       lpesatellites=""
       mode="vertical"
       discard_orig_path="false"
       fuse_paths="true"
       oposite_fuse="false"
       split_items="false"
       split_open="false"
       link_styles="true" /><inkscape:path-effect
       effect="mirror_symmetry"
       start_point="8.4666667,0"
       end_point="8.4666667,16.933333"
       center_point="8.4666667,8.4666667"
       id="path-effect6"
       is_visible="true"
       lpeversion="1.2"
       lpesatellites=""
       mode="vertical"
       discard_orig_path="false"
       fuse_paths="true"
       oposite_fuse="false"
       split_items="false"
       split_open="false"
       link_styles="true" /><linearGradient
       inkscape:collect="always"
       xlink:href="#linearGradient19"
       id="linearGradient21"
       gradientUnits="userSpaceOnUse"
       x1="11.169263"
       y1="34.068359"
       x2="17.079258"
       y2="40.380852" /><linearGradient
       inkscape:collect="always"
       xlink:href="#linearGradient19"
       id="linearGradient22"
       gradientUnits="userSpaceOnUse"
       x1="43.104073"
       y1="33.736744"
       x2="50.334118"
       y2="41.910709" /><linearGradient
       inkscape:collect="always"
       xlink:href="#linearGradient19"
       id="linearGradient28"
       gradientUnits="userSpaceOnUse"
       x1="22.689005"
       y1="32.581936"
       x2="45.57832"
       y2="52.921219" /></defs><g
     inkscape:label="Layer 1"
     inkscape:groupmode="layer"
     id="layer1"><circle
       style="font-variation-settings:normal;opacity:1;vector-effect:none;fill:#84bbf0;fill-opacity:1;stroke:none;stroke-width:0.390435;stroke-linecap:round;stroke-linejoin:miter;stroke-miterlimit:4;stroke-dasharray:none;stroke-dashoffset:0;stroke-opacity:1;-inkscape-stroke:none;paint-order:normal;stop-color:#000000;stop-opacity:1"
       id="path26"
       cx="8.4666662"
       cy="8.4666662"
       r="5.5141315" /><path
       style="fill:none;fill-opacity:1;stroke:#000000;stroke-width:0.1992012;stroke-linecap:square;stroke-linejoin:round;stroke-dasharray:none;stroke-opacity:1;paint-order:markers stroke fill"
       d="M 13.170008,8.2872023 12.52409,8.8261842 12.108725,8.2761348 11.54508,8.7215926"
       id="path10" /><path
       style="fill:none;fill-opacity:1;stroke:#000000;stroke-width:0.1992012;stroke-linecap:square;stroke-linejoin:round;stroke-dasharray:none;stroke-opacity:1;paint-order:markers stroke fill"
       d="M 3.2565373,8.7878099 3.724635,9.2762964 4.2400881,8.9089172 4.826921,9.4318556"
       id="path13"
       sodipodi:nodetypes="cccc" /><path
       style="fill:none;fill-opacity:1;stroke:#000000;stroke-width:0.39043337;stroke-linecap:round;stroke-linejoin:miter;stroke-dasharray:none;stroke-opacity:1;paint-order:normal"
       d="M 5.8645318,8.1812745 7.2202513,9.1545435 8.4666663,8.0543627 9.8050619,9.1277938 11.068801,8.1812745"
       id="path14"
       sodipodi:nodetypes="ccccc" /><path
       style="display:inline;fill:url(#linearGradient28);fill-opacity:1;stroke:none;stroke-width:1.47565;stroke-linecap:round;stroke-linejoin:miter;stroke-dasharray:none;stroke-opacity:1;paint-order:normal;font-variation-settings:normal;opacity:1;vector-effect:none;stroke-miterlimit:4;stroke-dashoffset:0;-inkscape-stroke:none;stop-color:#000000;stop-opacity:1"
       d="m 32.001157,31.347394 c -0.445627,0.350367 -0.86097,0.741888 -1.292476,1.110791 -1.129035,0.988469 -2.247074,1.989163 -3.385547,2.965301 -1.444685,-1.02419 -2.878,-2.064343 -4.32162,-3.09001 -0.160593,-0.05601 -0.215626,0.163471 -0.31251,0.248459 -2.755221,3.554766 -5.508858,7.110774 -8.252528,10.674451 -0.05501,0.142164 0.111259,0.245843 0.162203,0.365384 2.170925,3.251089 5.267128,5.877519 8.838804,7.469998 2.25892,1.009927 4.695433,1.62949 7.166292,1.786561 0.832623,0.0651 1.669435,0.04228 2.503407,0.02094 3.465969,-0.184188 6.880509,-1.244824 9.836825,-3.06423 2.079322,-1.265533 3.910185,-2.92283 5.437651,-4.814085 0.42599,-0.538064 0.831646,-1.097236 1.196637,-1.676157 0.02571,-0.137656 -0.14012,-0.226801 -0.198302,-0.340394 -2.741908,-3.538764 -5.472155,-7.086536 -8.226111,-10.615862 -0.132706,-0.09555 -0.243362,0.08719 -0.353801,0.141957 -1.250454,0.92181 -2.498566,1.846887 -3.739167,2.781893 -1.623224,-1.251551 -3.20658,-2.553904 -4.811304,-3.828989 -0.07812,-0.04708 -0.145826,-0.158145 -0.248453,-0.136013 z"
       id="path16"
       transform="scale(0.26458333)" /><path
       style="fill:url(#linearGradient21);fill-opacity:1;stroke:none;stroke-width:1.47565269;stroke-linecap:round;stroke-linejoin:miter;stroke-dasharray:none;stroke-opacity:1;paint-order:normal;font-variation-settings:normal;opacity:1;stroke-miterlimit:4;stroke-dashoffset:0;stop-color:#000000;stop-opacity:1"
       d="m 12.465001,33.955281 c -0.37516,0.316726 -0.833592,0.561202 -1.146545,0.940508 0.03444,0.731114 0.238275,1.449223 0.392827,2.163615 0.295959,1.108929 0.631679,2.218376 1.118579,3.258716 0.169801,0.197942 0.333328,-0.126001 0.427354,-0.235817 1.280115,-1.641049 2.548084,-3.291465 3.821156,-4.938008 0.02087,-0.246856 -0.332458,-0.356156 -0.468095,-0.542242 -0.20688,-0.141413 -0.370004,-0.406492 -0.621567,-0.455148 -0.672666,0.321188 -1.217736,0.867941 -1.880583,1.207398 -0.290256,-0.008 -0.42723,-0.340723 -0.642924,-0.494046 -0.321784,-0.299022 -0.592498,-0.670459 -0.943233,-0.925174 l -0.04165,0.01477 z"
       id="path17"
       transform="scale(0.26458333)" /><path
       style="fill:url(#linearGradient22);fill-opacity:1;stroke:none;stroke-width:1.47565269;stroke-linecap:round;stroke-linejoin:miter;stroke-dasharray:none;stroke-opacity:1;paint-order:normal;font-variation-settings:normal;opacity:1;stroke-miterlimit:4;stroke-dashoffset:0;stop-color:#000000;stop-opacity:1"
       d="m 45.680289,31.794514 c -0.302532,0.141082 -0.563058,0.388172 -0.804019,0.609355 0.026,0.247337 0.309003,0.436123 0.436564,0.658976 1.855548,2.374908 3.661244,4.789774 5.563094,7.127922 0.07113,0.133418 0.292013,0.273368 0.346155,0.04466 0.520815,-1.252097 0.96444,-2.546634 1.217325,-3.880542 -0.02049,-0.258415 -0.279522,-0.436199 -0.393233,-0.660387 -0.850529,-1.190776 -1.691893,-2.389038 -2.565964,-3.562401 -0.214011,-0.07372 -0.362748,0.207812 -0.537575,0.293895 -0.525049,0.389484 -0.982666,0.879568 -1.547492,1.20957 -0.327785,0.07257 -0.42369,-0.331351 -0.616789,-0.506609 -0.344816,-0.435272 -0.65499,-0.90664 -1.028495,-1.319249 -0.02071,-0.01326 -0.04564,-0.01796 -0.06957,-0.01519 z"
       id="path18"
       transform="scale(0.26458333)"
       inkscape:label="path18" /><path
       style="fill:none;fill-opacity:1;stroke:#000000;stroke-width:0.39840241;stroke-linecap:square;stroke-linejoin:miter;stroke-dasharray:none;stroke-opacity:1;paint-order:markers stroke fill"
       d="m 10.933563,7.9478298 1.333643,-0.9318096 1.805605,2.5423643"
       id="path9"
       sodipodi:nodetypes="ccc" /><path
       style="fill:none;fill-opacity:1;stroke:#000000;stroke-width:0.39840241;stroke-linecap:square;stroke-linejoin:miter;stroke-dasharray:none;stroke-opacity:1;paint-order:markers stroke fill"
       d="M 5.2513911,8.8947666 4.2052099,8.0679527 2.6245369,9.2673747"
       id="path12"
       sodipodi:nodetypes="ccc" /><path
       style="fill:none;fill-opacity:1;stroke:#000000;stroke-width:0.79680481;stroke-linecap:round;stroke-linejoin:miter;stroke-dasharray:none;stroke-opacity:1;paint-order:normal"
       d="M 3.2623969,11.54577 8.4666667,4.8167793 13.670936,11.54577"
       id="path6"
       inkscape:path-effect="#path-effect6"
       inkscape:original-d="M 3.2623969,11.54577 8.9641915,4.1734921"
       sodipodi:nodetypes="cc" /><path
       d="M 8.4666775,0.59798878 C 8.1651218,0.60687354 7.8643249,0.6330982 7.5657802,0.6765254 L 7.307518,1.7073081 c -0.010828,9.812e-4 -0.021651,0.00199 -0.032472,0.00302 -0.3931407,0.069409 -0.7795047,0.1730131 -1.1546286,0.3096126 -0.00856,0.004 -0.017125,0.00804 -0.025675,0.012085 L 5.3562034,1.2678093 C 5.0744083,1.3799467 4.7993124,1.5082912 4.5323317,1.652182 4.2756806,1.8105187 4.0283257,1.9834906 3.7915269,2.1702167 L 4.083771,3.1926935 c -0.00907,0.00627 -0.018139,0.012567 -0.027186,0.018879 -0.3057069,0.25655 -0.5884659,0.539309 -0.8450159,0.8450159 -0.0053,0.00754 -0.010594,0.015092 -0.015858,0.022655 L 2.1732347,3.7869988 C 1.9853309,4.0251864 1.8113476,4.274058 1.6521793,4.5323344 1.5092169,4.7978938 1.3816317,5.0714709 1.2700721,5.3516751 l 0.7634593,0.7392946 c -0.00456,0.00981 -0.00909,0.019624 -0.01359,0.029451 -0.1365973,0.3751164 -0.2402039,0.7614956 -0.3096125,1.1546286 -7.742e-4,0.00931 -0.00153,0.018626 -0.00226,0.02794 L 0.67727718,7.5604969 c -0.0438802,0.3002734 -0.0703562,0.6028519 -0.0792907,0.9061833 0.008885,0.3015501 0.0351109,0.6023578 0.0785366,0.9008971 L 1.7073066,9.6258395 c 9.811e-4,0.010828 0.00199,0.021651 0.00302,0.032472 0.069409,0.3931335 0.1730156,0.7795115 0.3096125,1.1546275 0.004,0.0086 0.00804,0.01713 0.012085,0.02567 l -0.7642146,0.73854 c 0.112138,0.281796 0.240481,0.556889 0.3843727,0.823872 0.1583376,0.256653 0.3313074,0.504004 0.5180347,0.740805 l 1.0224768,-0.292244 c 0.00627,0.0091 0.012567,0.01814 0.018879,0.02718 0.2565455,0.305702 0.5393147,0.588471 0.845016,0.845017 0.00754,0.0053 0.015092,0.01052 0.022655,0.01586 l -0.2922442,1.022477 c 0.2381891,0.187904 0.4870578,0.361886 0.7453356,0.521055 0.2655611,0.14296 0.5391348,0.270547 0.8193408,0.382108 l 0.7392945,-0.76346 c 0.00981,0.0045 0.019624,0.0091 0.029451,0.01359 0.3751187,0.136603 0.7614934,0.240203 1.1546286,0.309612 0.00931,7.75e-4 0.018626,0.0015 0.02794,0.0022 l 0.2575071,1.030785 c 0.3002752,0.04388 0.6028502,0.07036 0.9061833,0.07929 0.3015519,-0.0089 0.602356,-0.03511 0.9008972,-0.07853 l 0.2582622,-1.030783 c 0.010828,-9.8e-4 0.021651,-0.002 0.032472,-0.0031 0.3931352,-0.06941 0.7795082,-0.173015 1.1546272,-0.309612 0.0086,-0.0039 0.01713,-0.008 0.02567,-0.01213 l 0.73854,0.764215 c 0.281799,-0.112141 0.556887,-0.24048 0.823872,-0.384373 0.256654,-0.158338 0.504002,-0.331306 0.740805,-0.518034 l -0.292245,-1.022477 c 0.0091,-0.0063 0.01813,-0.01257 0.02718,-0.01888 0.305703,-0.256547 0.588469,-0.539314 0.845017,-0.845017 0.0053,-0.0076 0.01052,-0.0151 0.01586,-0.02265 l 1.022477,0.292244 c 0.187905,-0.23819 0.361884,-0.487056 0.521055,-0.745335 0.14296,-0.265562 0.270545,-0.539133 0.382107,-0.819342 l -0.763459,-0.739294 c 0.0045,-0.0098 0.0091,-0.01962 0.01359,-0.02944 0.136603,-0.37512 0.240202,-0.76149 0.309612,-1.1546277 7.74e-4,-0.00931 0.0015,-0.018626 0.0022,-0.02794 l 1.030784,-0.2575071 c 0.04388,-0.300277 0.07036,-0.6028484 0.07929,-0.9061832 1.59e-4,-0.1526319 -0.0041,-0.3052397 -0.01286,-0.4576226 -0.0088,-0.1458212 -0.02163,-0.2913725 -0.03852,-0.4364783 l -1.058619,-0.264897 c -0.0061,-0.042096 -0.01271,-0.084136 -0.01964,-0.1261111 -0.02705,-0.1411566 -0.05853,-0.2814415 -0.0944,-0.42062 -0.03567,-0.1391591 -0.07571,-0.2771779 -0.120057,-0.4138232 -0.02857,-0.084399 -0.05878,-0.1682432 -0.09062,-0.2514658 l 0.78536,-0.75891 C 15.627297,5.2009273 15.564845,5.0669588 15.498659,4.9348308 15.430082,4.7985868 15.357555,4.664363 15.281176,4.5323344 15.204925,4.400148 15.124843,4.2702053 15.041037,4.1426757 14.960808,4.0208094 14.877205,3.9011959 14.790326,3.7839781 L 13.742929,4.0830186 C 13.654491,3.9760544 13.562817,3.8717887 13.468054,3.7703853 13.369587,3.6655214 13.267836,3.5637707 13.162972,3.4653037 13.062764,3.3716208 12.959758,3.2809559 12.854114,3.1934487 L 13.153911,2.1460519 C 13.035241,2.0580825 12.914116,1.9734712 12.790682,1.8923206 12.663152,1.8085133 12.533211,1.7284327 12.401023,1.652182 12.268994,1.5758021 12.134771,1.5032761 11.998526,1.434698 11.867867,1.3693524 11.735411,1.3076572 11.601316,1.2496856 L 10.841632,2.0342893 C 10.75717,2.0019009 10.672068,1.9711835 10.586391,1.9421606 10.449745,1.8978159 10.311728,1.8577706 10.172567,1.8220914 10.033388,1.7862294 9.893104,1.7547474 9.7519473,1.7276972 9.7114792,1.7210412 9.6709486,1.7147477 9.6303678,1.7088184 L 9.3660643,0.6493392 C 9.2192008,0.63235425 9.0718871,0.61951153 8.9242999,0.61082638 8.7719163,0.60210996 8.6193103,0.59782891 8.4666775,0.59798878 Z m 0,2.35456622 c 0.1312592,-1.533e-4 0.2624996,0.00438 0.3934345,0.01359 0.1308442,0.00944 0.2613301,0.023545 0.3911691,0.042289 0.1299192,0.01879 0.2591455,0.042217 0.3873934,0.070229 0.1282299,0.027921 0.2554405,0.060418 0.3813525,0.097415 0.126029,0.036816 0.25072,0.078129 0.3738,0.1238445 0.122828,0.046005 0.243993,0.096385 0.363229,0.1510305 0.119608,0.054426 0.237243,0.11312 0.352656,0.1759506 0.115122,0.062908 0.227969,0.1299133 0.338308,0.2008706 0.110358,0.070888 0.218178,0.1457043 0.323205,0.2242803 0.105098,0.078633 0.207372,0.1610047 0.306593,0.2469351 0.09908,0.086153 0.195044,0.1758306 0.287713,0.2688344 0.093,0.092669 0.182681,0.1886435 0.268834,0.2877131 0.08592,0.099222 0.168302,0.2014932 0.246935,0.306592 0.07858,0.1050287 0.153393,0.2128423 0.224281,0.3232053 0.07096,0.1103391 0.137962,0.223191 0.20087,0.3383084 0.06284,0.1154128 0.121522,0.233051 0.17595,0.3526564 0.05465,0.1192356 0.105025,0.2404005 0.151031,0.3632284 0.04571,0.1230803 0.08702,0.2477718 0.123846,0.3738007 0.037,0.1259108 0.06949,0.2531221 0.09741,0.381352 0.02801,0.1282475 0.05144,0.2574737 0.07023,0.3873934 0.01875,0.1298388 0.03285,0.2603241 0.04229,0.3911692 0.0092,0.1309348 0.01374,0.2621759 0.01359,0.3934345 9.6e-5,0.3612774 -0.03532,0.7217416 -0.105726,1.0760926 -0.07061,0.3540372 -0.175846,0.700334 -0.314143,1.033805 -0.138006,0.333806 -0.308496,0.65329 -0.508973,0.953757 -0.200894,0.300196 -0.430832,0.579967 -0.686434,0.835199 -0.255233,0.255602 -0.535003,0.48554 -0.835199,0.686434 -0.300467,0.200477 -0.619951,0.37097 -0.953758,0.508973 -0.333471,0.138298 -0.6797671,0.243527 -1.0338043,0.314143 -0.3543509,0.07041 -0.7148151,0.105814 -1.0760925,0.105726 -0.3612776,9.7e-5 -0.7217418,-0.03532 -1.0760927,-0.105726 C 7.0365476,13.804468 6.6902515,13.699238 6.3567807,13.560941 6.0229741,13.422938 5.7034896,13.252445 5.4030228,13.051968 5.1028261,12.851074 4.8230558,12.621136 4.567824,12.365534 4.3122211,12.110301 4.0822832,11.830531 3.8813901,11.530335 3.6809126,11.229868 3.5104197,10.910384 3.3724171,10.576577 3.2341195,10.243106 3.12889,9.8968099 3.0582737,9.5427727 2.9878691,9.1884218 2.952455,8.8279576 2.9525523,8.4666802 2.952455,8.1054026 2.9878691,7.7449384 3.0582737,7.3905875 3.12889,7.0365503 3.2341195,6.6902542 3.3724171,6.3567834 3.5104197,6.0229768 3.6809126,5.7034923 3.8813901,5.4030255 4.0822832,5.1028288 4.3122211,4.8230585 4.567824,4.5678267 4.8230558,4.3122238 5.1028261,4.0822859 5.4030228,3.8813928 5.7034896,3.6809153 6.0229741,3.5104224 6.3567807,3.3724198 6.6902515,3.2341222 7.0365476,3.1288927 7.3905848,3.0582764 7.7449357,2.9878718 8.1053999,2.9524577 8.4666775,2.952555 Z"
       style="stroke-width:0.49;stroke-linecap:square;stroke-linejoin:round;paint-order:markers stroke fill;fill:#002b3c;fill-opacity:1;stroke:none;stroke-opacity:1;stroke-dasharray:none"
       id="path5"
       inkscape:label="Cogwheel" /><path
       style="font-variation-settings:normal;opacity:1;fill:#ffffff;fill-opacity:1;stroke:none;stroke-width:1.85197;stroke-linecap:round;stroke-linejoin:miter;stroke-miterlimit:4;stroke-dasharray:none;stroke-dashoffset:0;stroke-opacity:1;paint-order:normal"
       d="m 31.956876,20.769535 c -1.790032,2.096838 -3.418902,4.338843 -5.116622,6.514438 -0.976565,1.30705 -2.00833,2.578637 -2.921539,3.929888 0.295995,0.449605 0.913919,0.700649 1.335339,1.068935 0.643894,0.45406 1.272431,0.933937 1.939519,1.352941 0.489265,-0.203449 0.851267,-0.707104 1.289257,-1.021567 1.164021,-0.997196 2.28029,-2.055355 3.506501,-2.97697 1.761168,1.214192 3.341218,2.69543 5.108225,3.89979 1.039517,-0.62483 1.987456,-1.438126 2.951513,-2.186589 0.236514,-0.269888 -0.288166,-0.553667 -0.379552,-0.804896 -2.508888,-3.275755 -5.007414,-6.56418 -7.608888,-9.765612 -0.02193,0.08717 -0.07241,-0.0301 -0.103753,-0.01036 z"
       id="path22"
       transform="scale(0.26458333)" /><path
       style="font-variation-settings:normal;opacity:1;fill:#ffffff;fill-opacity:1;stroke:none;stroke-width:1.85197;stroke-linecap:round;stroke-linejoin:miter;stroke-miterlimit:4;stroke-dasharray:none;stroke-dashoffset:0;stroke-opacity:1;paint-order:normal"
       d="m 14.57769,32.378274 c -0.441136,0.377895 -0.997257,0.66529 -1.379514,1.092598 0.120862,0.455294 0.57814,0.782565 0.940507,1.053755 0.689576,-0.263469 1.211251,-0.945446 1.925899,-1.141108 0.565262,0.221425 0.898062,0.8497 1.452711,1.049267 0.348799,-0.280167 0.636353,-0.678132 0.857125,-1.053928 -0.779009,-0.672114 -1.624166,-1.283526 -2.428435,-1.932459 -0.489386,0.149443 -0.916157,0.65592 -1.368293,0.931875 z"
       id="path24"
       transform="scale(0.26458333)" /><path
       style="font-variation-settings:normal;opacity:1;fill:#ffffff;fill-opacity:1;stroke:none;stroke-width:1.85197;stroke-linecap:round;stroke-linejoin:miter;stroke-miterlimit:4;stroke-dasharray:none;stroke-dashoffset:0;stroke-opacity:1;paint-order:normal"
       d="m 46.117656,27.564044 c -1.019789,0.74891 -2.133837,1.399579 -3.092038,2.218341 -0.02609,0.482818 0.499914,0.820507 0.714613,1.213728 0.261251,0.233099 0.420918,0.717634 0.781083,0.782087 0.478865,-0.185678 0.805283,-0.799865 1.347405,-0.75717 0.650354,0.46457 0.961257,1.285626 1.535057,1.815068 0.496963,-0.404903 1.10411,-0.784146 1.489309,-1.296304 -0.355646,-0.91303 -1.069397,-1.656727 -1.593416,-2.481113 -0.383825,-0.49288 -0.692837,-1.070325 -1.121591,-1.512418 z"
       id="path25"
       transform="scale(0.26458333)" /><path
       d="M 8.4666775,0.59798878 C 8.1651218,0.60687354 7.8643249,0.6330982 7.5657802,0.6765254 L 7.307518,1.7073081 c -0.010828,9.812e-4 -0.021651,0.00199 -0.032472,0.00302 -0.3931407,0.069409 -0.7795047,0.1730131 -1.1546286,0.3096126 -0.00856,0.004 -0.017125,0.00804 -0.025675,0.012085 L 5.3562034,1.2678093 C 5.0744083,1.3799467 4.7993124,1.5082912 4.5323317,1.652182 4.2756806,1.8105187 4.0283257,1.9834906 3.7915269,2.1702167 L 4.083771,3.1926935 c -0.00907,0.00627 -0.018139,0.012567 -0.027186,0.018879 -0.3057069,0.25655 -0.5884659,0.539309 -0.8450159,0.8450159 -0.0053,0.00754 -0.010594,0.015092 -0.015858,0.022655 L 2.1732347,3.7869988 C 1.9853309,4.0251864 1.8113476,4.274058 1.6521793,4.5323344 1.5092169,4.7978938 1.3816317,5.0714709 1.2700721,5.3516751 l 0.7634593,0.7392946 c -0.00456,0.00981 -0.00909,0.019624 -0.01359,0.029451 -0.1365973,0.3751164 -0.2402039,0.7614956 -0.3096125,1.1546286 -7.742e-4,0.00931 -0.00153,0.018626 -0.00226,0.02794 L 0.67727718,7.5604969 c -0.0438802,0.3002734 -0.0703562,0.6028519 -0.0792907,0.9061833 0.008885,0.3015501 0.0351109,0.6023578 0.0785366,0.9008971 L 1.7073066,9.6258395 c 9.811e-4,0.010828 0.00199,0.021651 0.00302,0.032472 0.069409,0.3931335 0.1730156,0.7795115 0.3096125,1.1546275 0.004,0.0086 0.00804,0.01713 0.012085,0.02567 l -0.7642146,0.73854 c 0.112138,0.281796 0.240481,0.556889 0.3843727,0.823872 0.1583376,0.256653 0.3313074,0.504004 0.5180347,0.740805 l 1.0224768,-0.292244 c 0.00627,0.0091 0.012567,0.01814 0.018879,0.02718 0.2565455,0.305702 0.5393147,0.588471 0.845016,0.845017 0.00754,0.0053 0.015092,0.01052 0.022655,0.01586 l -0.2922442,1.022477 c 0.2381891,0.187904 0.4870578,0.361886 0.7453356,0.521055 0.2655611,0.14296 0.5391348,0.270547 0.8193408,0.382108 l 0.7392945,-0.76346 c 0.00981,0.0045 0.019624,0.0091 0.029451,0.01359 0.3751187,0.136603 0.7614934,0.240203 1.1546286,0.309612 0.00931,7.75e-4 0.018626,0.0015 0.02794,0.0022 l 0.2575071,1.030785 c 0.3002752,0.04388 0.6028502,0.07036 0.9061833,0.07929 0.3015519,-0.0089 0.602356,-0.03511 0.9008972,-0.07853 l 0.2582622,-1.030783 c 0.010828,-9.8e-4 0.021651,-0.002 0.032472,-0.0031 0.3931352,-0.06941 0.7795082,-0.173015 1.1546272,-0.309612 0.0086,-0.0039 0.01713,-0.008 0.02567,-0.01213 l 0.73854,0.764215 c 0.281799,-0.112141 0.556887,-0.24048 0.823872,-0.384373 0.256654,-0.158338 0.504002,-0.331306 0.740805,-0.518034 l -0.292245,-1.022477 c 0.0091,-0.0063 0.01813,-0.01257 0.02718,-0.01888 0.305703,-0.256547 0.588469,-0.539314 0.845017,-0.845017 0.0053,-0.0076 0.01052,-0.0151 0.01586,-0.02265 l 1.022477,0.292244 c 0.187905,-0.23819 0.361884,-0.487056 0.521055,-0.745335 0.14296,-0.265562 0.270545,-0.539133 0.382107,-0.819342 l -0.763459,-0.739294 c 0.0045,-0.0098 0.0091,-0.01962 0.01359,-0.02944 0.136603,-0.37512 0.240202,-0.76149 0.309612,-1.1546277 7.74e-4,-0.00931 0.0015,-0.018626 0.0022,-0.02794 l 1.030784,-0.2575071 c 0.04388,-0.300277 0.07036,-0.6028484 0.07929,-0.9061832 1.59e-4,-0.1526319 -0.0041,-0.3052397 -0.01286,-0.4576226 -0.0088,-0.1458212 -0.02163,-0.2913725 -0.03852,-0.4364783 l -1.058619,-0.264897 c -0.0061,-0.042096 -0.01271,-0.084136 -0.01964,-0.1261111 -0.02705,-0.1411566 -0.05853,-0.2814415 -0.0944,-0.42062 -0.03567,-0.1391591 -0.07571,-0.2771779 -0.120057,-0.4138232 -0.02857,-0.084399 -0.05878,-0.1682432 -0.09062,-0.2514658 l 0.78536,-0.75891 C 15.627297,5.2009273 15.564845,5.0669588 15.498659,4.9348308 15.430082,4.7985868 15.357555,4.664363 15.281176,4.5323344 15.204925,4.400148 15.124843,4.2702053 15.041037,4.1426757 14.960808,4.0208094 14.877205,3.9011959 14.790326,3.7839781 L 13.742929,4.0830186 C 13.654491,3.9760544 13.562817,3.8717887 13.468054,3.7703853 13.369587,3.6655214 13.267836,3.5637707 13.162972,3.4653037 13.062764,3.3716208 12.959758,3.2809559 12.854114,3.1934487 L 13.153911,2.1460519 C 13.035241,2.0580825 12.914116,1.9734712 12.790682,1.8923206 12.663152,1.8085133 12.533211,1.7284327 12.401023,1.652182 12.268994,1.5758021 12.134771,1.5032761 11.998526,1.434698 11.867867,1.3693524 11.735411,1.3076572 11.601316,1.2496856 L 10.841632,2.0342893 C 10.75717,2.0019009 10.672068,1.9711835 10.586391,1.9421606 10.449745,1.8978159 10.311728,1.8577706 10.172567,1.8220914 10.033388,1.7862294 9.893104,1.7547474 9.7519473,1.7276972 9.7114792,1.7210412 9.6709486,1.7147477 9.6303678,1.7088184 L 9.3660643,0.6493392 C 9.2192008,0.63235425 9.0718871,0.61951153 8.9242999,0.61082638 8.7719163,0.60210996 8.6193103,0.59782891 8.4666775,0.59798878 Z"
       style="fill:none;fill-opacity:1;stroke:#8c9cb2;stroke-width:0.2;stroke-linecap:square;stroke-linejoin:miter;stroke-dasharray:none;stroke-opacity:1;paint-order:markers stroke fill"
       id="path31"
       inkscape:label="Cogwheel"
       sodipodi:nodetypes="ccccccccccccccccccccccccccccccccccccccccccccccccccccccccccccccccccccccccccccccccccccccccccccc" /><circle
       style="font-variation-settings:normal;opacity:1;fill:none;fill-opacity:1;stroke:#000000;stroke-width:0.3;stroke-linecap:round;stroke-linejoin:miter;stroke-miterlimit:4;stroke-dasharray:none;stroke-dashoffset:0;stroke-opacity:1;paint-order:normal"
       id="path32"
       cx="8.4666662"
       cy="8.4666662"
       r="5.5141315" /></g></svg>
